<svg width="124" height="41" viewBox="0 0 124 41" fill="none" xmlns="http://www.w3.org/2000/svg">
<path d="M29.7392 19.8241C30.7816 21.4886 31.309 23.4239 31.2552 25.3871C31.2249 26.9109 31.044 28.4279 30.7152 29.9161C30.0772 33.511 28.1374 36.7449 25.2662 39.0001C23.6382 40.1571 21.6717 40.7396 19.6762 40.6561C17.4055 40.6561 15.8592 40.0091 15.0372 38.7151C14.6694 38.1036 14.4905 37.397 14.5232 36.6841C14.5664 35.6392 14.7925 34.61 15.1912 33.6431C15.5949 34.1782 16.1046 34.6244 16.6883 34.9538C17.2721 35.2833 17.9174 35.489 18.5842 35.5581C20.4342 35.5581 21.8305 34.4711 22.7732 32.2971C23.5876 30.3119 23.9816 28.1793 23.9302 26.0341C23.9302 21.5314 22.2679 19.2801 18.9432 19.2801C18.1346 19.2827 17.3272 19.3432 16.5272 19.4611L12.2092 39.7501H4.62719L11.7722 6.03011L19.5602 5.00011L17.0932 16.7441H17.4002C18.4365 16.7254 19.4545 16.4681 20.3752 15.9922C21.2959 15.5163 22.0946 14.8346 22.7092 14.0001C24.1437 12.3859 24.9511 10.3104 24.9842 8.15111C25.0465 6.98374 24.7121 5.82962 24.0355 4.8763C23.3589 3.92299 22.3797 3.22653 21.2572 2.90011C20.275 2.57592 19.2454 2.41874 18.2112 2.43511C17.1051 2.43131 16.0019 2.54833 14.9212 2.78411C13.8766 3.0128 12.8626 3.36389 11.9002 3.83011C9.81707 4.83107 8.04828 6.38403 6.78619 8.32011C5.47548 10.4146 4.81435 12.8503 4.88619 15.3201C4.82611 16.4353 5.04721 17.5477 5.52919 18.5551C5.58979 18.6669 5.624 18.7911 5.62919 18.9181C2.85319 18.9181 1.10519 18.0554 0.385191 16.3301C0.110153 15.603 -0.0206158 14.8292 0.000191459 14.0521C0.00466416 12.1743 0.548952 10.3373 1.56819 8.76011C2.68261 7.02348 4.11223 5.51077 5.78319 4.30011C9.6366 1.457 14.3117 -0.0525861 19.1002 0.000113668C22.7669 0.000113668 25.5512 0.815447 27.4532 2.44611C28.3497 3.16458 29.0717 4.07695 29.5648 5.11463C30.0579 6.1523 30.3093 7.28827 30.3002 8.43711C30.2858 10.0833 29.8254 11.6947 28.9682 13.1001C28.0144 14.6785 26.6567 15.9737 25.0352 16.8521C25.9813 16.9981 26.8872 17.3373 27.6965 17.8486C28.5058 18.3599 29.2011 19.0324 29.7392 19.8241ZM123.684 31.1071C123.69 32.0887 123.53 33.0643 123.209 33.9921C122.917 34.8512 122.477 35.6526 121.909 36.3601C120.892 37.6408 119.539 38.613 118 39.1681C116.524 39.7409 114.957 40.0434 113.373 40.0611C110.769 40.0611 108.799 39.3838 107.462 38.0291C106.999 37.5674 106.593 37.0509 106.255 36.4911C105.527 37.5727 104.549 38.4623 103.403 39.0839C102.257 39.7055 100.978 40.0408 99.6742 40.0611C97.8809 40.1949 96.1047 39.6342 94.7132 38.4951C94.1356 37.911 93.6881 37.2113 93.4003 36.4419C93.1124 35.6725 92.9908 34.8509 93.0432 34.0311C93.0558 33.1003 93.1589 32.1729 93.3512 31.2621L93.7882 29.1921C93.9164 28.5527 93.9873 27.9031 94.0002 27.2511C94.0002 25.5431 93.3669 24.6891 92.1002 24.6891C91.1049 24.6891 89.8109 25.3444 88.2182 26.6551L85.4672 39.7551H77.8812L79.1242 33.8881C75.7082 37.9981 71.7382 40.0558 67.2142 40.0611C65.0448 40.1732 62.911 39.477 61.2252 38.1071C60.4013 37.3559 59.8015 36.3913 59.4922 35.3201C57.3955 38.4781 54.6749 40.0584 51.3302 40.0611C48.1969 40.0611 46.4572 38.3874 46.1112 35.0401C44.0559 38.3881 41.4599 40.0618 38.3232 40.0611C36.8433 40.0973 35.4068 39.5599 34.3142 38.5611C33.2342 37.5611 32.6945 35.9478 32.6952 33.7211C32.7143 32.5545 32.852 31.3929 33.1062 30.2541L36.6792 13.2541H44.2612L40.4832 31.2621C40.3862 31.7564 40.3346 32.2585 40.3292 32.7621C40.3292 34.2114 40.8515 34.9361 41.8962 34.9361C43.7469 34.9361 45.1519 33.3748 46.1112 30.2521L49.6842 13.2521H57.2672L53.4882 31.2621C53.3336 31.871 53.256 32.4969 53.2572 33.1251C53.2572 34.3331 53.9769 34.9371 55.4162 34.9371C56.9432 34.9371 58.1362 33.9881 59.0042 32.1151C59.0042 31.9591 58.9892 31.8151 58.9892 31.6501C59.0038 27.5384 60.0559 23.4969 62.0482 19.9001C63.4287 17.2096 65.6627 15.053 68.4002 13.7681C69.7392 13.1231 71.2059 12.7868 72.6922 12.7841C76.9082 12.7841 79.0159 14.3888 79.0152 17.5981C79.1021 18.6521 78.8106 19.7025 78.1932 20.5611C77.9742 20.8461 77.6945 21.0788 77.3743 21.2421C77.0541 21.4054 76.7015 21.4952 76.3422 21.5051C75.6357 21.4986 74.9471 21.2828 74.3632 20.8851C74.7607 19.8875 74.9764 18.8268 75.0002 17.7531C75.0002 16.3038 74.5002 15.5791 73.5002 15.5791C72.5002 15.5791 71.4422 16.4938 70.3262 18.3231C67.9882 22.4214 66.7652 27.0609 66.7792 31.7791C66.7792 34.3331 67.9875 35.6098 70.4042 35.6091C72.201 35.6702 73.9757 35.1976 75.5042 34.2511C77.135 33.1171 78.6085 31.772 79.8862 30.2511H79.8922L85.5152 3.70011L93.3002 2.64011L89.3702 21.3001L99.5232 13.2501H104.742L94.2002 20.6261C94.7711 20.477 95.3582 20.3988 95.9482 20.3931C96.7673 20.3323 97.5891 20.4671 98.3458 20.7865C99.1025 21.1059 99.7724 21.6008 100.3 22.2301C101.268 23.4795 101.776 25.0241 101.739 26.6041C101.734 27.2817 101.665 27.9574 101.533 28.6221L100.942 31.2621C100.794 31.8203 100.709 32.3931 100.686 32.9701C100.686 34.2808 101.397 34.9364 102.819 34.9371C103.345 34.9234 103.859 34.7855 104.321 34.5347C104.783 34.2839 105.179 33.9273 105.477 33.4941C105.434 32.319 105.734 31.1567 106.34 30.1491C106.819 29.3986 107.483 28.7837 108.267 28.3631C110.963 23.3646 113.134 18.1006 114.745 12.6551L122.532 11.6201C122.67 14.9321 122.808 17.7011 122.944 19.9271L123.587 28.3381C123.652 29.1661 123.684 30.0891 123.684 31.1071ZM116.051 30.9521C116.041 29.8705 115.972 28.7902 115.844 27.7161L115.537 24.6891C115.348 22.7558 115.185 20.6594 115.048 18.4001C113.921 21.8566 112.494 25.2078 110.782 28.4151C111.134 28.5403 111.438 28.7706 111.654 29.0748C111.87 29.3789 111.987 29.7421 111.989 30.1151C112.006 30.8147 111.784 31.4992 111.36 32.0561C111.164 32.3192 110.906 32.5308 110.61 32.6727C110.314 32.8146 109.988 32.8827 109.66 32.8711C109.246 32.9006 108.835 32.7708 108.513 32.5081C108.444 32.6721 108.371 32.8251 108.299 32.9831C108.489 34.9078 109.393 35.8711 111.01 35.8731C114.37 35.8698 116.051 34.2294 116.051 30.9521Z" fill="#FFF046"/>
</svg>


