<svg width="140" height="53" viewBox="0 0 140 53" fill="none" xmlns="http://www.w3.org/2000/svg">
<path d="M30.5811 19.8241C31.6238 21.4885 32.1516 23.4238 32.0981 25.3871C32.0678 26.9109 31.8869 28.4279 31.5581 29.9161C30.9201 33.511 28.9803 36.7448 26.1091 39.0001C24.4808 40.1573 22.5139 40.7399 20.5181 40.6561C18.2481 40.6561 16.7018 40.0091 15.8791 38.7151C15.5113 38.1036 15.3324 37.397 15.3651 36.6841C15.4088 35.6392 15.6349 34.6101 16.0331 33.6431C16.4369 34.1781 16.9465 34.6243 17.5303 34.9537C18.114 35.2832 18.7594 35.4889 19.4261 35.5581C21.2768 35.5581 22.6731 34.4711 23.6151 32.2971C24.43 30.312 24.8239 28.1793 24.7721 26.0341C24.7721 21.5314 23.1101 19.2801 19.7861 19.2801C18.9775 19.2827 18.1701 19.3431 17.3701 19.4611L13.0511 39.7501H5.46909L12.6151 6.0301L20.4001 5.0001L17.9321 16.7491H18.2411C19.278 16.7301 20.2965 16.4721 21.2175 15.9954C22.1384 15.5186 22.937 14.8358 23.5511 14.0001C24.9856 12.3859 25.793 10.3104 25.8261 8.1511C25.8886 6.98382 25.5545 5.82971 24.878 4.87638C24.2016 3.92304 23.2225 3.22654 22.1001 2.9001C21.1179 2.57583 20.0883 2.41865 19.0541 2.4351C17.948 2.43138 16.8448 2.54841 15.7641 2.7841C14.7198 3.01369 13.7061 3.36544 12.7441 3.8321C10.6608 4.8332 8.89173 6.38612 7.62909 8.3221C6.31877 10.4168 5.65768 12.8524 5.7291 15.3221C5.66875 16.4372 5.8895 17.5496 6.37109 18.5571C6.4316 18.6689 6.46579 18.7931 6.47109 18.9201C3.69509 18.9201 1.9471 18.0574 1.2271 16.3321C0.951561 15.6051 0.820767 14.8313 0.842088 14.0541C0.846053 12.1762 1.39039 10.3391 2.4101 8.7621C3.52394 7.02414 4.95403 5.51061 6.6261 4.3001C10.4785 1.45727 15.1526 -0.0523113 19.9401 9.93022e-05C23.6068 9.93022e-05 26.3911 0.815433 28.2931 2.4461C29.1909 3.16387 29.9142 4.07593 30.4085 5.11364C30.9029 6.15136 31.1554 7.28768 31.1471 8.4371C31.1315 10.0838 30.6695 11.6954 29.8101 13.1001C28.8567 14.6784 27.4993 15.9736 25.8781 16.8521C26.824 16.9981 27.7298 17.3373 28.5389 17.8486C29.3481 18.3599 30.0432 19.0324 30.5811 19.8241ZM140 13.2501L133.574 43.9941C132.907 47.3754 131.554 49.8254 129.513 51.3441C128.037 52.443 126.24 53.025 124.4 53.0001C122.673 53.0669 120.981 52.4976 119.645 51.4001C119.075 50.9432 118.613 50.3653 118.293 49.7081C117.973 49.051 117.803 48.331 117.795 47.6001C117.738 46.4117 117.981 45.2282 118.501 44.1581C119.057 43.2237 119.817 42.4276 120.725 41.8301C122.652 40.7109 124.729 39.8741 126.893 39.3451L127.433 37.0161C126.658 37.9721 125.678 38.7426 124.566 39.271C123.454 39.7995 122.238 40.0725 121.007 40.0701C119.527 40.1031 118.091 39.562 117 38.5601C116.143 37.6938 115.611 36.5582 115.494 35.3451C114.635 36.7025 113.445 37.8191 112.036 38.5897C110.627 39.3604 109.044 39.7597 107.438 39.7501C104.405 39.7501 102.683 38.2318 102.272 35.1951C100.147 38.4391 97.5214 40.0611 94.3941 40.0611C92.981 40.1364 91.5842 39.7291 90.433 38.9062C89.2817 38.0833 88.4443 36.8935 88.0581 35.5321C88.0201 35.4321 87.9931 35.3161 87.9581 35.2101C87.1042 36.6038 85.9053 37.7538 84.4774 38.549C83.0494 39.3443 81.4406 39.7579 79.8061 39.7501C76.7734 39.7501 75.0514 38.2318 74.6401 35.1951C72.5154 38.4391 69.8891 40.0611 66.7611 40.0611C65.348 40.1364 63.9512 39.7291 62.7999 38.9062C61.6487 38.0833 60.8113 36.8935 60.4251 35.5321C60.3981 35.4561 60.3781 35.3731 60.3531 35.2961C58.2544 38.4694 55.5284 40.0578 52.1751 40.0611C49.0418 40.0611 47.3024 38.3874 46.9571 35.0401C44.9011 38.3881 42.3051 40.0618 39.1691 40.0611C37.6889 40.0973 36.2521 39.5598 35.1591 38.5611C34.0798 37.5611 33.5401 35.9478 33.5401 33.7211C33.5592 32.5545 33.6969 31.3928 33.9511 30.2541L37.5241 13.2541H45.1001L41.3211 31.2661C41.2246 31.7604 41.1731 32.2625 41.1671 32.7661C41.1671 34.2154 41.6898 34.9401 42.7351 34.9401C44.5851 34.9401 45.9901 33.3788 46.9501 30.2561L50.5231 13.2561H58.1051L54.3271 31.2681C54.1725 31.877 54.0949 32.5029 54.0961 33.1311C54.0961 34.3391 54.8158 34.9431 56.2551 34.9431C57.7781 34.9431 58.9711 33.9981 59.8391 32.1301C59.8391 32.0301 59.8281 31.9301 59.8281 31.8241C59.8306 28.9849 60.3288 26.168 61.3001 23.5001C62.2708 20.6636 63.8786 18.0874 66.0001 15.9691C66.9677 15.0042 68.1193 14.2436 69.3865 13.7323C70.6538 13.2211 72.0108 12.9697 73.3771 12.9931C74.5183 12.8989 75.6603 13.1662 76.6411 13.7571C76.9519 13.973 77.2054 14.2615 77.3796 14.5974C77.5538 14.9333 77.6436 15.3067 77.6411 15.6851V15.8921L80.2141 3.7001L88.0001 2.6401L81.9601 31.2621C81.8055 31.871 81.7279 32.4969 81.7291 33.1251C81.7291 34.3331 82.4488 34.9371 83.8881 34.9371C85.4121 34.9371 86.6041 33.9921 87.4721 32.1241C87.4721 32.0241 87.4611 31.9241 87.4611 31.8181C87.4625 28.9807 87.9583 26.1653 88.9261 23.4981C89.8968 20.6616 91.5046 18.0854 93.6261 15.9671C94.5937 15.0022 95.7453 14.2416 97.0125 13.7303C98.2798 13.2191 99.6368 12.9677 101.003 12.9911C102.144 12.897 103.286 13.1643 104.267 13.7551C104.578 13.9711 104.831 14.2595 105.005 14.5955C105.18 14.9314 105.27 15.3047 105.267 15.6831V15.8901L107.846 3.7001L115.634 2.6391L109.594 31.2611C109.439 31.87 109.362 32.4959 109.363 33.1241C109.363 34.3321 110.083 34.9361 111.522 34.9361C113.49 34.9361 114.911 33.3771 115.786 30.2591V30.2521L119.359 13.2521H126.942L123.163 31.2641C123.062 31.7053 123.01 32.1564 123.009 32.6091C123.009 34.1618 123.532 34.9384 124.577 34.9391C126.427 34.9391 127.832 33.3778 128.792 30.2551L132.365 13.2551L140 13.2501ZM77.1561 18.1151C77.0859 17.5972 76.827 17.1234 76.4292 16.7845C76.0314 16.4455 75.5226 16.2652 75.0001 16.2781C74.4056 16.3 73.8232 16.4529 73.2946 16.7259C72.766 16.9988 72.3042 17.3851 71.9421 17.8571C69.7141 20.3904 68.3174 24.0308 67.7521 28.7781C67.6648 29.5416 67.622 30.3096 67.6241 31.0781C67.6241 33.6494 68.4981 34.9348 70.2461 34.9341C71.1613 34.861 72.0254 34.4828 72.7001 33.8601C73.6869 32.9962 74.3526 31.8241 74.5891 30.5341V30.2501L77.1561 18.1151ZM104.787 18.1151C104.717 17.5966 104.458 17.1223 104.059 16.7832C103.661 16.4441 103.151 16.2643 102.628 16.2781C102.033 16.2999 101.451 16.4527 100.922 16.7257C100.393 16.9986 99.9313 17.385 99.5691 17.8571C97.3411 20.3904 95.9448 24.0308 95.3801 28.7781C95.2919 29.5416 95.2489 30.3096 95.2511 31.0781C95.2511 33.6494 96.1251 34.9348 97.8731 34.9341C98.7885 34.8607 99.6529 34.4826 100.328 33.8601C101.314 32.9959 101.98 31.8239 102.217 30.5341V30.2501L104.787 18.1151ZM126.532 41.0151C125.14 41.4411 123.822 42.0782 122.624 42.9041C122.045 43.32 121.568 43.8624 121.229 44.4901C120.891 45.1179 120.7 45.8145 120.671 46.5271C120.687 46.7567 120.752 46.9803 120.861 47.1832C120.969 47.3862 121.119 47.564 121.301 47.7051C121.695 48.0831 122.22 48.292 122.766 48.2871C123.101 48.2582 123.426 48.1633 123.724 48.0078C124.022 47.8523 124.286 47.6393 124.501 47.3811C125.25 46.4495 125.73 45.3308 125.889 44.1461L126.532 41.0151Z" fill="#FFFFFF"/>
</svg>
