<svg width="18" height="62" viewBox="0 0 18 62" fill="none" xmlns="http://www.w3.org/2000/svg">
<path d="M14.8 30.48C12.6667 28.0887 8.65467 26.142 2.764 24.64V11.09C3.9196 11.5492 4.93512 12.3025 5.70989 13.2751C6.48467 14.2477 6.99179 15.406 7.181 16.635L16.494 15.492C16.0051 12.3044 14.4472 9.37766 12.076 7.192C9.44583 4.98845 6.18675 3.67215 2.764 3.431V0H0V62H2.761V55.519C7.54567 54.873 11.2817 53.1173 13.969 50.252C16.653 47.3971 18.1016 43.5981 18 39.681C18.1354 36.3197 16.9919 33.0319 14.8 30.48ZM7.251 45.452C6.07531 46.7465 4.48981 47.5968 2.761 47.86V34.344C4.56806 34.7199 6.22515 35.6176 7.527 36.926C8.49077 38.033 9.00895 39.4585 8.981 40.926C9.00499 42.6005 8.38579 44.2204 7.251 45.452Z" fill="#FEFEFE"/>
</svg>
