<svg width="18" height="62" viewBox="0 0 18 62" fill="none" xmlns="http://www.w3.org/2000/svg">
<path d="M18 62V0H15.423V3.431C11.6154 3.64007 8.01257 5.2221 5.282 7.884C4.03442 9.13525 3.05355 10.6265 2.39869 12.2676C1.74383 13.9087 1.42858 15.6656 1.472 17.432C1.38167 20.9207 2.58082 24.3201 4.84 26.98C7.086 29.602 10.6137 31.56 15.423 32.854V47.375C14.0079 46.7027 12.7719 45.7052 11.816 44.464C10.71 43.0683 9.95269 41.4289 9.607 39.682L0 40.652C0.733333 45.204 2.42667 48.7273 5.08 51.222C7.94124 53.8107 11.577 55.3823 15.423 55.693V62H18ZM11.853 20.43C11.093 19.4539 10.6787 18.2531 10.675 17.016C10.6733 15.6807 11.1277 14.3848 11.963 13.343C12.8444 12.218 14.0534 11.3944 15.423 10.986V22.977C14.0221 22.4711 12.7872 21.59 11.853 20.43Z" fill="#FEFEFE"/>
</svg>
