<svg width="201" height="104" viewBox="0 0 201 104" fill="none" xmlns="http://www.w3.org/2000/svg">
<g filter="url(#filter0_d)">
<path d="M171 15H30C24.4772 15 20 19.4772 20 25V49C20 54.5228 24.4772 59 30 59H57.5L54 79L73 59H171C176.523 59 181 54.5228 181 49V25C181 19.4772 176.523 15 171 15Z" fill="white"/>
</g>
<path d="M39.7801 41.07C39.0521 41.07 38.3988 40.9113 37.8201 40.594C37.2508 40.2767 36.8028 39.8333 36.4761 39.264C36.1495 38.6853 35.9861 38.0367 35.9861 37.318C35.9861 36.5993 36.1495 35.9553 36.4761 35.386C36.8028 34.8167 37.2508 34.3733 37.8201 34.056C38.3988 33.7387 39.0521 33.58 39.7801 33.58C40.4148 33.58 40.9795 33.706 41.4741 33.958C41.9781 34.2007 42.3748 34.56 42.6641 35.036L41.9221 35.54C41.6795 35.176 41.3715 34.9053 40.9981 34.728C40.6248 34.5413 40.2188 34.448 39.7801 34.448C39.2481 34.448 38.7675 34.5693 38.3381 34.812C37.9181 35.0453 37.5868 35.3813 37.3441 35.82C37.1108 36.2587 36.9941 36.758 36.9941 37.318C36.9941 37.8873 37.1108 38.3913 37.3441 38.83C37.5868 39.2593 37.9181 39.5953 38.3381 39.838C38.7675 40.0713 39.2481 40.188 39.7801 40.188C40.2188 40.188 40.6248 40.0993 40.9981 39.922C41.3715 39.7447 41.6795 39.474 41.9221 39.11L42.6641 39.614C42.3748 40.09 41.9781 40.454 41.4741 40.706C40.9701 40.9487 40.4055 41.07 39.7801 41.07ZM52.8208 33.636V41H51.9108V35.176L48.9288 40.104H48.4808L45.4988 35.162V41H44.5888V33.636H45.5968L48.7188 38.942L51.8968 33.636H52.8208ZM58.6874 41.07C57.978 41.07 57.3387 40.9113 56.7694 40.594C56.2 40.2673 55.752 39.8193 55.4254 39.25C55.0987 38.6807 54.9354 38.0367 54.9354 37.318C54.9354 36.5993 55.0987 35.9553 55.4254 35.386C55.752 34.8167 56.2 34.3733 56.7694 34.056C57.3387 33.7387 57.978 33.58 58.6874 33.58C59.3967 33.58 60.036 33.7387 60.6054 34.056C61.1747 34.3733 61.618 34.8167 61.9354 35.386C62.262 35.9553 62.4254 36.5993 62.4254 37.318C62.4254 38.0367 62.262 38.6807 61.9354 39.25C61.618 39.8193 61.1747 40.2673 60.6054 40.594C60.036 40.9113 59.3967 41.07 58.6874 41.07ZM58.6874 40.188C59.21 40.188 59.6767 40.0713 60.0874 39.838C60.5074 39.5953 60.834 39.2547 61.0674 38.816C61.3007 38.3773 61.4174 37.878 61.4174 37.318C61.4174 36.758 61.3007 36.2587 61.0674 35.82C60.834 35.3813 60.5074 35.0453 60.0874 34.812C59.6767 34.5693 59.21 34.448 58.6874 34.448C58.1647 34.448 57.6934 34.5693 57.2734 34.812C56.8627 35.0453 56.536 35.3813 56.2934 35.82C56.06 36.2587 55.9434 36.758 55.9434 37.318C55.9434 37.878 56.06 38.3773 56.2934 38.816C56.536 39.2547 56.8627 39.5953 57.2734 39.838C57.6934 40.0713 58.1647 40.188 58.6874 40.188ZM69.4563 34.518H66.6703V41H65.6763V34.518H62.8903V33.636H69.4563V34.518ZM74.6875 33.58C75.3782 33.58 76.0035 33.7387 76.5635 34.056C77.1235 34.364 77.5622 34.8027 77.8795 35.372C78.1968 35.9413 78.3555 36.59 78.3555 37.318C78.3555 38.0553 78.1968 38.7087 77.8795 39.278C77.5622 39.8473 77.1235 40.2907 76.5635 40.608C76.0128 40.916 75.3875 41.07 74.6875 41.07C74.0902 41.07 73.5488 40.9487 73.0635 40.706C72.5875 40.454 72.1955 40.09 71.8875 39.614V43.716H70.8935V33.636H71.8455V35.092C72.1442 34.6067 72.5362 34.2333 73.0215 33.972C73.5162 33.7107 74.0715 33.58 74.6875 33.58ZM74.6175 40.188C75.1308 40.188 75.5975 40.0713 76.0175 39.838C76.4375 39.5953 76.7642 39.2547 76.9975 38.816C77.2402 38.3773 77.3615 37.878 77.3615 37.318C77.3615 36.758 77.2402 36.2633 76.9975 35.834C76.7642 35.3953 76.4375 35.0547 76.0175 34.812C75.5975 34.5693 75.1308 34.448 74.6175 34.448C74.0948 34.448 73.6235 34.5693 73.2035 34.812C72.7928 35.0547 72.4662 35.3953 72.2235 35.834C71.9902 36.2633 71.8735 36.758 71.8735 37.318C71.8735 37.878 71.9902 38.3773 72.2235 38.816C72.4662 39.2547 72.7928 39.5953 73.2035 39.838C73.6235 40.0713 74.0948 40.188 74.6175 40.188ZM86.9311 37.626H80.7711C80.8271 38.3913 81.1211 39.012 81.6531 39.488C82.1851 39.9547 82.8571 40.188 83.6691 40.188C84.1265 40.188 84.5465 40.1087 84.9291 39.95C85.3118 39.782 85.6431 39.5393 85.9231 39.222L86.4831 39.866C86.1565 40.258 85.7458 40.5567 85.2511 40.762C84.7658 40.9673 84.2291 41.07 83.6411 41.07C82.8851 41.07 82.2131 40.9113 81.6251 40.594C81.0465 40.2673 80.5938 39.8193 80.2671 39.25C79.9405 38.6807 79.7771 38.0367 79.7771 37.318C79.7771 36.5993 79.9311 35.9553 80.2391 35.386C80.5565 34.8167 80.9858 34.3733 81.5271 34.056C82.0778 33.7387 82.6938 33.58 83.3751 33.58C84.0565 33.58 84.6678 33.7387 85.2091 34.056C85.7505 34.3733 86.1751 34.8167 86.4831 35.386C86.7911 35.946 86.9451 36.59 86.9451 37.318L86.9311 37.626ZM83.3751 34.434C82.6658 34.434 82.0685 34.6627 81.5831 35.12C81.1071 35.568 80.8365 36.156 80.7711 36.884H85.9931C85.9278 36.156 85.6525 35.568 85.1671 35.12C84.6911 34.6627 84.0938 34.434 83.3751 34.434ZM93.9973 34.518H91.2113V41H90.2173V34.518H87.4313V33.636H93.9973V34.518ZM98.5985 36.24C99.5225 36.2493 100.223 36.4547 100.699 36.856C101.184 37.2573 101.427 37.836 101.427 38.592C101.427 39.376 101.165 39.978 100.643 40.398C100.129 40.818 99.3825 41.0233 98.4025 41.014L95.4345 41V33.636H96.4285V36.212L98.5985 36.24ZM98.3465 40.258C99.0278 40.2673 99.5412 40.132 99.8865 39.852C100.241 39.5627 100.419 39.1427 100.419 38.592C100.419 38.0507 100.246 37.6493 99.9005 37.388C99.5552 37.1267 99.0372 36.9913 98.3465 36.982L96.4285 36.954V40.23L98.3465 40.258ZM111.677 37.192C112.676 37.4253 113.175 38.0273 113.175 38.998C113.175 39.642 112.937 40.1367 112.461 40.482C111.985 40.8273 111.276 41 110.333 41H106.987V33.636H110.235C111.075 33.636 111.733 33.7993 112.209 34.126C112.685 34.4527 112.923 34.9193 112.923 35.526C112.923 35.9273 112.811 36.2727 112.587 36.562C112.373 36.842 112.069 37.052 111.677 37.192ZM107.953 36.912H110.165C110.735 36.912 111.169 36.8047 111.467 36.59C111.775 36.3753 111.929 36.0627 111.929 35.652C111.929 35.2413 111.775 34.9333 111.467 34.728C111.169 34.5227 110.735 34.42 110.165 34.42H107.953V36.912ZM110.291 40.216C110.926 40.216 111.402 40.1133 111.719 39.908C112.037 39.7027 112.195 39.3807 112.195 38.942C112.195 38.5033 112.051 38.1813 111.761 37.976C111.472 37.7613 111.015 37.654 110.389 37.654H107.953V40.216H110.291ZM125.959 33.636V40.104C125.959 41.3547 125.651 42.2787 125.035 42.876C124.428 43.4827 123.509 43.786 122.277 43.786C121.596 43.786 120.947 43.6833 120.331 43.478C119.724 43.282 119.23 43.0067 118.847 42.652L119.351 41.896C119.706 42.2133 120.135 42.4607 120.639 42.638C121.152 42.8153 121.689 42.904 122.249 42.904C123.182 42.904 123.868 42.6847 124.307 42.246C124.746 41.8167 124.965 41.1447 124.965 40.23V39.292C124.657 39.7587 124.251 40.1133 123.747 40.356C123.252 40.5987 122.702 40.72 122.095 40.72C121.404 40.72 120.774 40.5707 120.205 40.272C119.645 39.964 119.202 39.5393 118.875 38.998C118.558 38.4473 118.399 37.8267 118.399 37.136C118.399 36.4453 118.558 35.8293 118.875 35.288C119.202 34.7467 119.645 34.3267 120.205 34.028C120.765 33.7293 121.395 33.58 122.095 33.58C122.72 33.58 123.285 33.706 123.789 33.958C124.293 34.21 124.699 34.574 125.007 35.05V33.636H125.959ZM122.193 39.838C122.725 39.838 123.206 39.726 123.635 39.502C124.064 39.2687 124.396 38.9467 124.629 38.536C124.872 38.1253 124.993 37.6587 124.993 37.136C124.993 36.6133 124.872 36.1513 124.629 35.75C124.396 35.3393 124.064 35.022 123.635 34.798C123.215 34.5647 122.734 34.448 122.193 34.448C121.661 34.448 121.18 34.56 120.751 34.784C120.331 35.008 120 35.3253 119.757 35.736C119.524 36.1467 119.407 36.6133 119.407 37.136C119.407 37.6587 119.524 38.1253 119.757 38.536C120 38.9467 120.331 39.2687 120.751 39.502C121.18 39.726 121.661 39.838 122.193 39.838ZM131.749 41.07C131.039 41.07 130.4 40.9113 129.831 40.594C129.261 40.2673 128.813 39.8193 128.487 39.25C128.16 38.6807 127.997 38.0367 127.997 37.318C127.997 36.5993 128.16 35.9553 128.487 35.386C128.813 34.8167 129.261 34.3733 129.831 34.056C130.4 33.7387 131.039 33.58 131.749 33.58C132.458 33.58 133.097 33.7387 133.667 34.056C134.236 34.3733 134.679 34.8167 134.997 35.386C135.323 35.9553 135.487 36.5993 135.487 37.318C135.487 38.0367 135.323 38.6807 134.997 39.25C134.679 39.8193 134.236 40.2673 133.667 40.594C133.097 40.9113 132.458 41.07 131.749 41.07ZM131.749 40.188C132.271 40.188 132.738 40.0713 133.149 39.838C133.569 39.5953 133.895 39.2547 134.129 38.816C134.362 38.3773 134.479 37.878 134.479 37.318C134.479 36.758 134.362 36.2587 134.129 35.82C133.895 35.3813 133.569 35.0453 133.149 34.812C132.738 34.5693 132.271 34.448 131.749 34.448C131.226 34.448 130.755 34.5693 130.335 34.812C129.924 35.0453 129.597 35.3813 129.355 35.82C129.121 36.2587 129.005 36.758 129.005 37.318C129.005 37.878 129.121 38.3773 129.355 38.816C129.597 39.2547 129.924 39.5953 130.335 39.838C130.755 40.0713 131.226 40.188 131.749 40.188ZM140.526 41.07C139.817 41.07 139.177 40.9113 138.608 40.594C138.039 40.2673 137.591 39.8193 137.264 39.25C136.937 38.6807 136.774 38.0367 136.774 37.318C136.774 36.5993 136.937 35.9553 137.264 35.386C137.591 34.8167 138.039 34.3733 138.608 34.056C139.177 33.7387 139.817 33.58 140.526 33.58C141.235 33.58 141.875 33.7387 142.444 34.056C143.013 34.3733 143.457 34.8167 143.774 35.386C144.101 35.9553 144.264 36.5993 144.264 37.318C144.264 38.0367 144.101 38.6807 143.774 39.25C143.457 39.8193 143.013 40.2673 142.444 40.594C141.875 40.9113 141.235 41.07 140.526 41.07ZM140.526 40.188C141.049 40.188 141.515 40.0713 141.926 39.838C142.346 39.5953 142.673 39.2547 142.906 38.816C143.139 38.3773 143.256 37.878 143.256 37.318C143.256 36.758 143.139 36.2587 142.906 35.82C142.673 35.3813 142.346 35.0453 141.926 34.812C141.515 34.5693 141.049 34.448 140.526 34.448C140.003 34.448 139.532 34.5693 139.112 34.812C138.701 35.0453 138.375 35.3813 138.132 35.82C137.899 36.2587 137.782 36.758 137.782 37.318C137.782 37.878 137.899 38.3773 138.132 38.816C138.375 39.2547 138.701 39.5953 139.112 39.838C139.532 40.0713 140.003 40.188 140.526 40.188ZM153.111 33.636V40.104C153.111 41.3547 152.803 42.2787 152.187 42.876C151.581 43.4827 150.661 43.786 149.429 43.786C148.748 43.786 148.099 43.6833 147.483 43.478C146.877 43.282 146.382 43.0067 145.999 42.652L146.503 41.896C146.858 42.2133 147.287 42.4607 147.791 42.638C148.305 42.8153 148.841 42.904 149.401 42.904C150.335 42.904 151.021 42.6847 151.459 42.246C151.898 41.8167 152.117 41.1447 152.117 40.23V39.292C151.809 39.7587 151.403 40.1133 150.899 40.356C150.405 40.5987 149.854 40.72 149.247 40.72C148.557 40.72 147.927 40.5707 147.357 40.272C146.797 39.964 146.354 39.5393 146.027 38.998C145.71 38.4473 145.551 37.8267 145.551 37.136C145.551 36.4453 145.71 35.8293 146.027 35.288C146.354 34.7467 146.797 34.3267 147.357 34.028C147.917 33.7293 148.547 33.58 149.247 33.58C149.873 33.58 150.437 33.706 150.941 33.958C151.445 34.21 151.851 34.574 152.159 35.05V33.636H153.111ZM149.345 39.838C149.877 39.838 150.358 39.726 150.787 39.502C151.217 39.2687 151.548 38.9467 151.781 38.536C152.024 38.1253 152.145 37.6587 152.145 37.136C152.145 36.6133 152.024 36.1513 151.781 35.75C151.548 35.3393 151.217 35.022 150.787 34.798C150.367 34.5647 149.887 34.448 149.345 34.448C148.813 34.448 148.333 34.56 147.903 34.784C147.483 35.008 147.152 35.3253 146.909 35.736C146.676 36.1467 146.559 36.6133 146.559 37.136C146.559 37.6587 146.676 38.1253 146.909 38.536C147.152 38.9467 147.483 39.2687 147.903 39.502C148.333 39.726 148.813 39.838 149.345 39.838ZM155.891 30.612H156.885V41H155.891V30.612ZM166.063 37.626H159.903C159.959 38.3913 160.253 39.012 160.785 39.488C161.317 39.9547 161.989 40.188 162.801 40.188C163.258 40.188 163.678 40.1087 164.061 39.95C164.443 39.782 164.775 39.5393 165.055 39.222L165.615 39.866C165.288 40.258 164.877 40.5567 164.383 40.762C163.897 40.9673 163.361 41.07 162.773 41.07C162.017 41.07 161.345 40.9113 160.757 40.594C160.178 40.2673 159.725 39.8193 159.399 39.25C159.072 38.6807 158.909 38.0367 158.909 37.318C158.909 36.5993 159.063 35.9553 159.371 35.386C159.688 34.8167 160.117 34.3733 160.659 34.056C161.209 33.7387 161.825 33.58 162.507 33.58C163.188 33.58 163.799 33.7387 164.341 34.056C164.882 34.3733 165.307 34.8167 165.615 35.386C165.923 35.946 166.077 36.59 166.077 37.318L166.063 37.626ZM162.507 34.434C161.797 34.434 161.2 34.6627 160.715 35.12C160.239 35.568 159.968 36.156 159.903 36.884H165.125C165.059 36.156 164.784 35.568 164.299 35.12C163.823 34.6627 163.225 34.434 162.507 34.434Z" fill="#3A84FF"/>
<defs>
<filter id="filter0_d" x="0" y="0" width="201" height="104" filterUnits="userSpaceOnUse" color-interpolation-filters="sRGB">
<feFlood flood-opacity="0" result="BackgroundImageFix"/>
<feColorMatrix in="SourceAlpha" type="matrix" values="0 0 0 0 0 0 0 0 0 0 0 0 0 0 0 0 0 0 127 0"/>
<feOffset dy="5"/>
<feGaussianBlur stdDeviation="10"/>
<feColorMatrix type="matrix" values="0 0 0 0 0 0 0 0 0 0 0 0 0 0 0 0 0 0 0.1 0"/>
<feBlend mode="normal" in2="BackgroundImageFix" result="effect1_dropShadow"/>
<feBlend mode="normal" in="SourceGraphic" in2="effect1_dropShadow" result="shape"/>
</filter>
</defs>
</svg>
