<svg width="18" height="18" viewBox="0 0 18 18" fill="none" xmlns="http://www.w3.org/2000/svg">
<path d="M8.99695 3.41492C10.4364 3.41492 11.7509 3.96572 12.7424 4.86168L15.0777 2.36474C13.4768 0.895958 11.3397 0 8.99695 0C5.55264 0 2.55631 1.9388 1.04346 4.78089L3.79009 6.98407C4.60527 4.8984 6.62485 3.41492 8.99695 3.41492Z" fill="#EA4335"/>
<path d="M3.41493 8.99632C3.41493 8.28396 3.55447 7.60831 3.79682 6.97674L1.05018 4.77356C0.381885 6.02937 0 7.46878 0 8.98897C0 10.5165 0.381885 11.9633 1.05753 13.2191L3.78947 10.9792C3.54712 10.377 3.41493 9.70133 3.41493 8.99632Z" fill="#FBBC05"/>
<path d="M12.1024 13.6377C11.2138 14.2326 10.149 14.5851 8.99595 14.5851C6.61651 14.5851 4.58959 13.0943 3.78175 10.9939L1.0498 13.2338C2.56266 16.0685 5.55164 18 8.99595 18C11.2285 18 13.2701 17.1848 14.8491 15.8335L12.1024 13.6377Z" fill="#34A853"/>
<path d="M17.9998 8.99629C17.9998 8.47487 17.9483 7.96814 17.8676 7.46875H9.36328V10.6487H14.3351C13.9532 11.8825 13.1528 12.9326 12.1026 13.6303L14.8492 15.8261C16.7733 14.1884 17.9998 11.7356 17.9998 8.99629Z" fill="#4285F4"/>
</svg>
