<svg width="59" height="61" viewBox="0 0 59 61" fill="none" xmlns="http://www.w3.org/2000/svg">
<path d="M16.161 0.399902L0 33.0809L14.941 38.9729C21.587 33.5509 30.854 18.1269 32.251 10.1369L16.161 0.399902Z" fill="#FFF046"/>
<path d="M44.9352 20.5748C46.0189 19.3441 47.3001 18.3025 48.7262 17.4928C51.0652 16.1568 53.3862 14.7928 55.7362 13.4768C56.1859 13.2084 56.6926 13.0501 57.2152 13.0148C57.8092 12.9998 58.4052 13.0048 59.0002 12.9998V4.01182C58.1568 4.00382 57.3138 3.99982 56.4712 3.99982C54.8246 3.9932 53.2147 4.48625 51.8542 5.41382C48.4542 7.63182 44.9632 9.71882 41.5322 11.8928C39.2072 13.33 36.4347 13.8614 33.7432 13.3858C33.4773 13.359 33.2094 13.357 32.9432 13.3798C31.1152 17.3688 29.4292 21.2348 27.5812 25.0258C25.6671 28.8335 23.339 32.4185 20.6392 35.7158L27.7872 39.9568C28.1682 39.5418 28.4192 39.2748 28.6622 39.0008C34.0902 32.8628 39.5382 26.7398 44.9352 20.5748Z" fill="#FFF046"/>
<path d="M58.9999 53.3618C58.4899 53.9478 57.9809 54.5348 57.4609 55.1118C57.096 55.5563 56.8427 56.0816 56.7222 56.6439C56.6017 57.2062 56.6174 57.7892 56.768 58.3442C56.9186 58.8992 57.1997 59.4101 57.588 59.8343C57.9763 60.2585 58.4603 60.5838 58.9999 60.7828V53.3618Z" fill="#FFF046"/>
<path d="M59.0002 14.6519C57.9499 14.7431 56.9292 15.0473 56.0002 15.5459C53.9002 16.7709 51.7112 17.8349 49.6102 19.0539C48.8027 19.5577 48.0604 20.1592 47.4002 20.8449C44.9002 23.5329 42.4682 26.2729 40.0112 28.9959C36.4892 32.8979 32.9672 36.7992 29.4452 40.6999C29.1086 40.9946 28.8498 41.3678 28.692 41.7864C28.5341 42.2051 28.482 42.6562 28.5402 43.0999C28.7106 44.3092 29.334 45.4087 30.2842 46.1759C32.1302 47.5669 33.9152 47.7939 35.5622 45.8829C38.3752 42.6219 41.3112 39.4619 44.2002 36.2639C45.2922 35.0549 46.4002 33.8559 47.4952 32.6529C47.8562 32.2529 48.3652 32.0259 48.7202 32.4599C48.8915 32.6402 49.0121 32.8627 49.0697 33.1047C49.1273 33.3467 49.1199 33.5996 49.0482 33.8379C48.4002 34.9999 44.1322 39.3479 41.9362 41.8259C40.6812 43.2399 39.3922 44.6319 38.2362 46.1259C36.9922 47.7259 37.1112 48.9259 38.4562 50.4819C38.6449 50.7368 38.8707 50.962 39.1262 51.1499C40.7952 52.1859 42.7822 51.2289 46.8632 47.2299C48.684 45.3698 50.6263 43.6326 52.6772 42.0299C53.0917 41.9158 53.5342 41.9674 53.9112 42.1739C54.1112 42.3129 54.1272 42.8939 54.0312 43.2219C53.8694 43.5495 53.6424 43.8408 53.3642 44.0779C51.3042 46.3949 49.1932 48.6709 47.2072 51.0479C46.4889 51.7949 46.0188 52.7455 45.8612 53.7699C45.8162 55.6009 47.0822 56.7949 48.7502 57.5209C49.4573 57.829 50.2404 57.9184 50.9988 57.7776C51.7571 57.6368 52.4559 57.2723 53.0052 56.7309C53.6052 56.1409 54.1392 55.4889 54.6972 54.8599C56.1332 53.2379 57.5676 51.6179 59.0002 49.9999V14.6519Z" fill="#FFF046"/>
</svg>
