<svg width="59" height="62" viewBox="0 0 59 62" fill="none" xmlns="http://www.w3.org/2000/svg">
<path d="M15.2802 46.4001C14.3262 46.1241 12.1482 47.5131 11.4022 48.8411C11.1064 49.3683 10.9932 49.9785 11.0804 50.5766C11.1676 51.1748 11.4502 51.7273 11.8842 52.1481C13.3362 53.9241 14.7422 55.7371 16.2212 57.4881C16.6127 57.8922 17.0836 58.2109 17.6042 58.4241C19.4312 59.2851 22.7092 57.1761 22.5742 54.6561C22.5497 53.8926 22.2922 53.1549 21.8362 52.5421C20.3152 50.7601 17.3472 47.0001 15.2802 46.4001Z" fill="#FFF046"/>
<path d="M9.05716 52.785C8.07716 52.285 6.28417 53.103 5.48117 54.154C4.74217 55.122 4.78117 56.021 5.63417 57.289C6.30083 58.2776 6.97683 59.26 7.66217 60.236C8.54117 61.487 9.36216 61.722 11.0572 61.236C11.7256 61.1131 12.3316 60.7644 12.7736 60.2481C13.2156 59.7318 13.4668 59.0794 13.4852 58.4C13.5169 58.1946 13.5139 57.9853 13.4762 57.781C12.6886 55.6164 11.1094 53.831 9.05716 52.785Z" fill="#FFF046"/>
<path d="M0 14.0001C1.768 13.9871 3.539 13.9921 5.336 13.9921C6.436 16.0561 7.536 18.0621 8.584 20.0921C8.88962 20.7612 9.35728 21.3435 9.94467 21.7863C10.5321 22.2291 11.2206 22.5184 11.948 22.6281C13.0812 22.8203 14.2378 22.8297 15.374 22.6561C18.174 22.1411 18.942 20.4351 17.61 17.9081C15.766 14.4081 13.872 10.9391 12.03 7.44007C11.6739 6.65158 11.083 5.9923 10.338 5.55234C9.59308 5.11238 8.73042 4.91322 7.868 4.98207C5.246 5.04207 2.623 5.02707 0 5.01207V14.0001Z" fill="#FFF046"/>
<path d="M29.8338 47.177C28.5208 46.067 26.2708 43 24.1118 43.1C23.3062 43.158 22.5314 43.4332 21.8698 43.8965C21.2082 44.3598 20.6846 44.9938 20.3548 45.731C19.6738 47.017 20.2878 48.019 21.1768 48.936C22.2288 50.021 23.2548 51.136 24.3168 52.208C25.5728 53.478 26.8818 53.579 28.5538 52.578C30.1488 51.623 31.1718 49.612 30.6718 48.267C30.4857 47.8407 30.198 47.4664 29.8338 47.177Z" fill="#FFF046"/>
<path d="M43.6002 0L28.4702 9.536C32.1282 19.508 40.9292 33.973 45.2442 37.136L59.0002 31.662L43.6002 0Z" fill="#FFF046"/>
<path d="M31.668 37.724C31.1946 37.6987 30.7215 37.7804 30.284 37.9631C29.8465 38.1458 29.4558 38.4247 29.141 38.7792C28.8261 39.1336 28.5952 39.5545 28.4653 40.0105C28.3355 40.4664 28.3101 40.9458 28.391 41.413C28.4618 42.2207 28.7241 43 29.1563 43.6861C29.5885 44.3722 30.178 44.9453 30.876 45.358C31.4199 45.8143 32.0867 46.0993 32.7923 46.1771C33.498 46.2548 34.2109 46.1219 34.841 45.795C35.5359 45.4019 36.1106 44.8272 36.5038 44.1324C36.897 43.4377 37.0938 42.649 37.073 41.851C37.0188 41.4162 36.8928 40.9934 36.7 40.6C36.2043 39.7064 35.4731 38.9658 34.586 38.4587C33.6988 37.9517 32.6895 37.6975 31.668 37.724Z" fill="#FFF046"/>
<path d="M17.811 14.8111C18.646 16.2801 19.328 17.5011 20.03 18.7111C20.2922 19.1004 20.421 19.5643 20.3972 20.0331C20.3734 20.5019 20.1982 20.9503 19.898 21.3111C17.803 24.2401 14.757 24.6421 11.488 24.4391C10.9167 24.4056 10.3597 24.2475 9.85593 23.976C9.35219 23.7044 8.91397 23.3259 8.572 22.8671C7.50346 21.5941 6.6139 20.181 5.928 18.6671C4.977 16.1171 3.428 15.1971 0.745998 15.5481C0.491998 15.5811 0.246 15.6141 0 15.6481V51.0001C0.995 50.2071 1.81 48.6921 2.775 49.5841C3.348 50.1151 3.108 50.7191 2.675 51.2501C2.542 51.4111 2.394 51.5591 2.259 51.7171C1.505 52.5971 0.759002 53.4811 0.00400162 54.3621V61.7831C0.245874 61.8715 0.496699 61.9332 0.751999 61.9671C2.505 62.1801 3.613 61.3371 4.807 60.4531C4.272 59.3211 3.679 58.2731 3.273 57.1531C2.87615 56.1114 2.88782 54.9582 3.30568 53.9248C3.72353 52.8914 4.51667 52.0542 5.526 51.5811C6.59095 51.1919 7.68869 50.899 8.806 50.7061C9.276 48.7271 9.581 46.6061 11.673 45.4781C13.798 44.3351 15.809 45.3011 17.855 45.9491C19.339 41.9961 22.214 40.9261 25.918 41.8571C26.466 40.5241 26.871 39.2911 27.464 38.1571C27.7876 37.4323 28.3318 36.8282 29.0191 36.431C29.7063 36.0338 30.5014 35.8637 31.291 35.9451C32.4726 36.1103 33.6203 36.4627 34.691 36.9891C35.7182 37.5289 36.7093 38.1348 37.658 38.8031L40.666 35.9551C35.2604 28.5675 30.6672 20.6186 26.966 12.2461C24.21 13.9306 21.0411 14.8185 17.811 14.8111Z" fill="#FFF046"/>
</svg>
