<?xml version="1.0" encoding="utf-8"?>
<!-- Generator: Adobe Illustrator 23.0.3, SVG Export Plug-In . SVG Version: 6.00 Build 0)  -->
<svg version="1.1" id="Layer_1" xmlns="http://www.w3.org/2000/svg" xmlns:xlink="http://www.w3.org/1999/xlink" x="0px" y="0px"
	 viewBox="0 0 21 19" style="enable-background:new 0 0 21 19;" xml:space="preserve">
<style type="text/css">
	.st0{fill-rule:evenodd;clip-rule:evenodd;fill:#303030;}
</style>
<path class="st0" d="M20.7,7.5l-9.9-7.2c-0.2-0.1-0.4-0.1-0.6,0L0.3,7.5C0,7.7,0,8,0.2,8.2c0.2,0.2,0.5,0.3,0.7,0.1L2,7.5v11
	C2,18.8,2.2,19,2.5,19h5C7.8,19,8,18.8,8,18.5V11h5v7.5c0,0.3,0.2,0.5,0.5,0.5h5c0.3,0,0.5-0.2,0.5-0.5v-11l1.1,0.8
	c0.2,0.2,0.6,0.1,0.7-0.1C21,8,21,7.7,20.7,7.5z M18,18h-4v-7.5c0-0.3-0.2-0.5-0.5-0.5h-6C7.2,10,7,10.2,7,10.5V18H3V6.8l7.5-5.5
	L18,6.8V18z"/>
</svg>
